<svg width="16" height="16" viewBox="0 0 16 16" fill="none" xmlns="http://www.w3.org/2000/svg">
<g id="Frame">
<g id="Union">
<path fill-rule="evenodd" clip-rule="evenodd" d="M13.901 10.5732C13.9006 10.5736 13.9002 10.574 13.9002 10.5748C13.8974 10.5776 13.8949 10.5804 13.8921 10.5835C13.8888 10.5873 13.885 10.5915 13.8799 10.5967L13.8752 10.6014C13.8705 10.6076 13.8643 10.6139 13.858 10.6201L9.65645 14.8873L9.64238 14.9014C9.64082 14.9029 9.63926 14.9041 9.6377 14.9053C9.63613 14.9064 9.63457 14.9076 9.63301 14.9092C9.62988 14.9107 9.62832 14.9123 9.62676 14.9139C9.6252 14.9154 9.62324 14.917 9.62129 14.9186C9.61934 14.9201 9.61738 14.9217 9.61582 14.9232C9.61582 14.9248 9.61426 14.9248 9.6127 14.9264C9.61035 14.9279 9.6084 14.9295 9.60645 14.9311C9.60449 14.9326 9.60254 14.9342 9.6002 14.9357C9.59863 14.9357 9.59863 14.9373 9.59707 14.9373C9.59518 14.9392 9.59271 14.9405 9.59002 14.942C9.58827 14.9429 9.58642 14.9439 9.58457 14.9451C9.58384 14.9451 9.58345 14.9455 9.58308 14.9458C9.58266 14.9462 9.58227 14.9467 9.58145 14.9467C9.57955 14.9486 9.57709 14.9499 9.5744 14.9513C9.57264 14.9523 9.5708 14.9533 9.56895 14.9545C9.56895 14.9545 9.56738 14.9561 9.56582 14.9561C9.56348 14.9568 9.56152 14.958 9.55957 14.9592C9.55762 14.9604 9.55566 14.9615 9.55332 14.9623C9.55254 14.9623 9.55176 14.9627 9.55098 14.9631C9.5502 14.9635 9.54941 14.9639 9.54863 14.9639C9.54395 14.967 9.54082 14.9686 9.53613 14.9701C9.53535 14.9701 9.53457 14.9705 9.53379 14.9709C9.53301 14.9713 9.53223 14.9717 9.53145 14.9717C9.52988 14.9725 9.52793 14.9732 9.52598 14.974C9.52402 14.9748 9.52207 14.9756 9.52051 14.9764C9.51895 14.9779 9.51582 14.9795 9.51426 14.9795C9.51336 14.9799 9.51234 14.9803 9.51126 14.9805C9.50857 14.9812 9.50555 14.9815 9.50332 14.9826C9.50248 14.983 9.50176 14.9835 9.50108 14.9838C9.49925 14.9849 9.4978 14.9857 9.49551 14.9857C9.49395 14.9865 9.49238 14.9869 9.49082 14.9873C9.48926 14.9877 9.4877 14.9881 9.48613 14.9889C9.48549 14.9889 9.48457 14.9891 9.4835 14.9894C9.48198 14.9899 9.48015 14.9904 9.47832 14.9904C9.47519 14.9904 9.47207 14.992 9.46895 14.992C9.46738 14.992 9.46582 14.9924 9.46426 14.9928C9.4627 14.9932 9.46113 14.9936 9.45957 14.9936C9.45699 14.9936 9.45488 14.994 9.45299 14.9945C9.45144 14.9948 9.45004 14.9951 9.44863 14.9951C9.44799 14.9951 9.44707 14.9954 9.446 14.9957C9.44448 14.9961 9.44265 14.9967 9.44082 14.9967C9.43848 14.9967 9.43652 14.9971 9.43457 14.9975C9.43262 14.9979 9.43066 14.9982 9.42832 14.9982H9.42207C9.41895 14.9982 9.41582 14.9986 9.4127 14.999C9.40957 14.9994 9.40645 14.9998 9.40332 14.9998H3.98926C2.9252 14.9998 2.05957 14.1342 2.05957 13.0701V2.94043C2.05957 1.87637 2.9252 1.01074 3.98926 1.01074H12.0439C13.108 1.01074 13.9736 1.87637 13.9736 2.94043V10.3623V10.3654C13.9736 10.3748 13.9736 10.3826 13.9721 10.3904V10.3967C13.9721 10.4033 13.9709 10.4089 13.9696 10.4152C13.9694 10.4163 13.9692 10.4174 13.9689 10.4186V10.4217C13.9682 10.4256 13.967 10.4295 13.9658 10.4334C13.9646 10.4373 13.9635 10.4412 13.9627 10.4451C13.9627 10.4459 13.9623 10.4471 13.9619 10.4482C13.9615 10.4494 13.9611 10.4506 13.9611 10.4514C13.9604 10.4545 13.9592 10.458 13.958 10.4615C13.9568 10.465 13.9557 10.4686 13.9549 10.4717C13.9549 10.4717 13.9533 10.4732 13.9533 10.4748C13.9502 10.4811 13.9471 10.4889 13.9439 10.4967C13.9432 10.4975 13.9428 10.4986 13.9424 10.4998C13.942 10.501 13.9416 10.5021 13.9408 10.5029L13.9314 10.5217C13.9314 10.5232 13.9299 10.5248 13.9299 10.5264C13.9275 10.5295 13.9256 10.533 13.9236 10.5365C13.9217 10.54 13.9197 10.5436 13.9174 10.5467C13.9174 10.5482 13.9158 10.5514 13.9143 10.5529C13.9119 10.5561 13.91 10.5592 13.908 10.5623C13.9061 10.5654 13.9041 10.5686 13.9018 10.5717C13.9018 10.5725 13.9014 10.5729 13.901 10.5732ZM2.83145 2.94043V13.0701C2.83145 13.7092 3.3502 14.2279 3.98926 14.2279H9.0002V11.8904C9.0002 10.8264 9.86582 9.96074 10.9299 9.96074H13.2018V2.94043C13.2018 2.30137 12.683 1.78262 12.0439 1.78262H3.98926C3.3502 1.78262 2.83145 2.30137 2.83145 2.94043ZM9.77207 11.8904V13.6717L12.6658 10.7326H10.9299C10.2908 10.7326 9.77207 11.2514 9.77207 11.8904ZM11.3096 4.59036H4.77524C4.56274 4.59036 4.38931 4.41848 4.38931 4.20442C4.38931 3.99192 4.56274 3.81848 4.77524 3.81848H11.3096C11.5221 3.81848 11.6956 3.99192 11.6956 4.20442C11.6956 4.41692 11.5221 4.59036 11.3096 4.59036ZM11.2721 7.29661H4.73774C4.52524 7.29661 4.35181 7.12473 4.35181 6.91067C4.35181 6.69817 4.52524 6.52473 4.73774 6.52473H11.2721C11.4846 6.52473 11.6581 6.69817 11.6581 6.91067C11.6581 7.12317 11.4846 7.29661 11.2721 7.29661ZM8.66743 9.23098C8.87993 9.23098 9.05337 9.40442 9.05337 9.61692C9.05337 9.82942 8.87993 10.0029 8.66743 10.0029H4.78618C4.57368 10.0029 4.40024 9.82942 4.40024 9.61692C4.40024 9.40442 4.57368 9.23098 4.78618 9.23098H8.66743Z" fill="#333A3B"/>
<path d="M13.9002 10.5748L14.0416 10.7162L14.1002 10.6576V10.5748H13.9002ZM13.8921 10.5835L14.0417 10.7163L14.0417 10.7163L13.8921 10.5835ZM13.8752 10.6014L13.7338 10.4599L13.7237 10.47L13.7152 10.4814L13.8752 10.6014ZM13.858 10.6201L13.7166 10.4787L13.7155 10.4798L13.858 10.6201ZM9.65645 14.8873L9.79787 15.0287L9.79896 15.0276L9.65645 14.8873ZM9.64238 14.9014L9.78378 15.0428L9.7838 15.0428L9.64238 14.9014ZM9.63301 14.9092L9.72243 15.0881L9.75146 15.0736L9.77441 15.0506L9.63301 14.9092ZM9.62676 14.9139L9.48536 14.7724L9.48531 14.7725L9.62676 14.9139ZM9.61582 14.9232L9.47438 14.7818L9.41582 14.8404V14.9232H9.61582ZM9.6127 14.9264L9.72362 15.0928L9.74009 15.0818L9.7541 15.0678L9.6127 14.9264ZM9.60645 14.9311L9.73137 15.0872L9.73141 15.0872L9.60645 14.9311ZM9.6002 14.9357V15.1357H9.66077L9.71117 15.1021L9.6002 14.9357ZM9.59707 14.9373V14.7373H9.51423L9.45565 14.7959L9.59707 14.9373ZM9.59002 14.942L9.68432 15.1183L9.68439 15.1183L9.59002 14.942ZM9.58457 14.9451V15.1451H9.64514L9.69553 15.1115L9.58457 14.9451ZM9.58308 14.9458L9.4423 14.8038L9.44215 14.8039L9.58308 14.9458ZM9.58145 14.9467V14.7467H9.4986L9.44002 14.8053L9.58145 14.9467ZM9.5744 14.9513L9.6687 15.1277L9.66877 15.1277L9.5744 14.9513ZM9.56895 14.9545L9.45799 14.7881L9.44151 14.7991L9.4275 14.8131L9.56895 14.9545ZM9.56582 14.9561V14.7561H9.53337L9.50259 14.7663L9.56582 14.9561ZM9.55957 14.9592L9.45672 14.7877L9.45666 14.7877L9.55957 14.9592ZM9.55332 14.9623V15.1623H9.58577L9.61655 15.152L9.55332 14.9623ZM9.54863 14.9639V14.7639H9.48807L9.43768 14.7975L9.54863 14.9639ZM9.53613 14.9701V15.1701H9.56858L9.59937 15.1599L9.53613 14.9701ZM9.53145 14.9717V14.7717H9.48424L9.44202 14.7928L9.53145 14.9717ZM9.52598 14.974L9.60024 15.1597L9.60032 15.1597L9.52598 14.974ZM9.52051 14.9764L9.43109 14.7975L9.40206 14.812L9.37911 14.8349L9.52051 14.9764ZM9.51426 14.9795V14.7795H9.46704L9.42482 14.8006L9.51426 14.9795ZM9.51126 14.9805L9.55888 15.1748L9.55894 15.1748L9.51126 14.9805ZM9.50332 14.9826L9.41391 14.8037L9.41388 14.8037L9.50332 14.9826ZM9.50108 14.9838L9.4012 14.8106L9.40109 14.8106L9.50108 14.9838ZM9.49551 14.9857V14.7857H9.44831L9.40609 14.8068L9.49551 14.9857ZM9.48613 14.9889V15.1889H9.53333L9.57555 15.1678L9.48613 14.9889ZM9.4835 14.9894L9.53973 15.1814L9.53982 15.1814L9.4835 14.9894ZM9.45299 14.9945L9.40917 14.7993L9.40908 14.7993L9.45299 14.9945ZM9.446 14.9957L9.38984 14.8037L9.38976 14.8038L9.446 14.9957ZM13.9721 10.3904L13.776 10.3512L13.7721 10.3706V10.3904H13.9721ZM13.9696 10.4152L13.7737 10.3749L13.7737 10.3749L13.9696 10.4152ZM13.9689 10.4186L13.7728 10.3793L13.7689 10.3987V10.4186H13.9689ZM13.9689 10.4217L14.1651 10.4609L14.1689 10.4415V10.4217H13.9689ZM13.9627 10.4451L13.7666 10.4059L13.7627 10.4253V10.4451H13.9627ZM13.9611 10.4514L14.1552 10.4999L14.1611 10.476V10.4514H13.9611ZM13.9549 10.4717L14.0963 10.6131L14.1355 10.5739L14.1489 10.5202L13.9549 10.4717ZM13.9533 10.4748L14.1322 10.5642L14.1533 10.522V10.4748H13.9533ZM13.9439 10.4967L14.0854 10.6381L14.1144 10.6091L14.1296 10.571L13.9439 10.4967ZM13.9408 10.5029L13.7994 10.3615L13.7765 10.3845L13.7619 10.4135L13.9408 10.5029ZM13.9314 10.5217L13.7526 10.4322L13.7314 10.4745V10.5217H13.9314ZM13.9299 10.5264L14.0899 10.6463L14.1299 10.593V10.5264H13.9299ZM13.9174 10.5467L13.7574 10.4267L13.7174 10.48V10.5467H13.9174ZM13.9143 10.5529L13.7728 10.4115L13.7628 10.4216L13.7542 10.433L13.9143 10.5529ZM13.9018 10.5717L13.7418 10.4517L13.7018 10.505V10.5717H13.9018ZM9.0002 14.2279V14.4279H9.2002V14.2279H9.0002ZM13.2018 9.96074V10.1607H13.4018V9.96074H13.2018ZM9.77207 13.6717H9.57207V14.1599L9.91459 13.812L9.77207 13.6717ZM12.6658 10.7326L12.8083 10.8729L13.1434 10.5326H12.6658V10.7326ZM14.1002 10.5748C14.1002 10.6114 14.0901 10.6466 14.0719 10.6768C14.0574 10.701 14.0396 10.7175 14.0424 10.7147L13.7596 10.4318C13.757 10.4343 13.7002 10.4861 13.7002 10.5748H14.1002ZM14.0417 10.7163L14.0416 10.7162L13.7588 10.4334C13.7511 10.4411 13.7447 10.4483 13.7426 10.4508L14.0417 10.7163ZM14.0213 10.7381C14.031 10.7284 14.0381 10.7203 14.0417 10.7163L13.7426 10.4507C13.7394 10.4543 13.7391 10.4546 13.7385 10.4553L14.0213 10.7381ZM14.0166 10.7428L14.0213 10.7381L13.7385 10.4553L13.7338 10.4599L14.0166 10.7428ZM13.9994 10.7615C14.0031 10.7579 14.0203 10.7412 14.0352 10.7214L13.7152 10.4814C13.7172 10.4787 13.7188 10.4768 13.7197 10.4757C13.7207 10.4746 13.7213 10.474 13.7213 10.474C13.7213 10.4739 13.721 10.4743 13.7201 10.4751C13.7192 10.476 13.7182 10.477 13.7166 10.4787L13.9994 10.7615ZM9.79896 15.0276L14.0005 10.7604L13.7155 10.4798L9.51393 14.747L9.79896 15.0276ZM9.7838 15.0428L9.79787 15.0287L9.51502 14.7459L9.50096 14.7599L9.7838 15.0428ZM9.75773 15.0653C9.75841 15.0647 9.77085 15.0557 9.78378 15.0428L9.50098 14.7599C9.51079 14.7501 9.5201 14.7435 9.51766 14.7453L9.75773 15.0653ZM9.77441 15.0506C9.7646 15.0604 9.75529 15.0671 9.75773 15.0653L9.51766 14.7453C9.51698 14.7458 9.50454 14.7548 9.49161 14.7677L9.77441 15.0506ZM9.76816 15.0553C9.76954 15.0539 9.76306 15.0606 9.75424 15.0677C9.74424 15.0757 9.73351 15.0825 9.72243 15.0881L9.54359 14.7303C9.51096 14.7466 9.49101 14.7668 9.48536 14.7724L9.76816 15.0553ZM9.74621 15.0747C9.74682 15.0743 9.7498 15.0719 9.753 15.0692C9.75625 15.0665 9.76185 15.0616 9.7682 15.0553L9.48531 14.7725C9.4901 14.7677 9.49394 14.7644 9.49534 14.7632C9.49668 14.7621 9.49771 14.7613 9.49637 14.7624L9.74621 15.0747ZM9.75726 15.0646C9.75248 15.0694 9.74864 15.0727 9.74724 15.0739C9.7459 15.075 9.74487 15.0758 9.74621 15.0747L9.49637 14.7624C9.49576 14.7629 9.49277 14.7652 9.48958 14.7679C9.48633 14.7707 9.48072 14.7755 9.47438 14.7818L9.75726 15.0646ZM9.7541 15.0678C9.74242 15.0795 9.73155 15.0873 9.72479 15.0918C9.72319 15.0929 9.72186 15.0938 9.72098 15.0943C9.72053 15.0946 9.72017 15.0948 9.71994 15.095C9.71982 15.095 9.71972 15.0951 9.71966 15.0951C9.7196 15.0952 9.71956 15.0952 9.71955 15.0952C9.71872 15.0957 9.72218 15.0936 9.72581 15.0912C9.73198 15.0871 9.75745 15.0702 9.7794 15.0389C9.80527 15.0019 9.81582 14.9607 9.81582 14.9232H9.41582C9.41582 14.8866 9.42617 14.846 9.4517 14.8095C9.47331 14.7786 9.49829 14.7621 9.50388 14.7584C9.50722 14.7562 9.51036 14.7543 9.50919 14.755C9.50905 14.7551 9.50624 14.7568 9.5029 14.759C9.4954 14.764 9.48375 14.7725 9.4713 14.7849L9.7541 15.0678ZM9.73141 15.0872C9.73389 15.0852 9.7295 15.0889 9.72362 15.0928L9.50177 14.7599C9.49121 14.767 9.48291 14.7738 9.48148 14.7749L9.73141 15.0872ZM9.71117 15.1021C9.72167 15.0951 9.72993 15.0884 9.73137 15.0872L9.48153 14.7749C9.47905 14.7768 9.4834 14.7732 9.48922 14.7694L9.71117 15.1021ZM9.59707 15.1373C9.61425 15.1373 9.63264 15.1351 9.6515 15.1298C9.67043 15.1245 9.68693 15.1169 9.70087 15.1086C9.71441 15.1005 9.72442 15.0923 9.73064 15.0868C9.73374 15.0841 9.73617 15.0817 9.73766 15.0803C9.73842 15.0796 9.73903 15.079 9.73941 15.0786C9.7396 15.0784 9.73976 15.0782 9.73986 15.0781C9.73995 15.078 9.74003 15.078 9.74003 15.078C9.74027 15.0777 9.73921 15.0788 9.73795 15.08C9.73657 15.0814 9.73423 15.0836 9.73123 15.0862C9.72523 15.0915 9.71543 15.0995 9.70214 15.1075C9.68844 15.1157 9.67221 15.1232 9.65359 15.1284C9.63504 15.1336 9.61698 15.1357 9.6002 15.1357V14.7357C9.58302 14.7357 9.56462 14.7379 9.54577 14.7432C9.52683 14.7485 9.51034 14.7561 9.49639 14.7645C9.48286 14.7726 9.47284 14.7808 9.46663 14.7862C9.46353 14.789 9.46109 14.7913 9.45961 14.7927C9.45885 14.7935 9.45824 14.7941 9.45786 14.7945C9.45767 14.7946 9.45751 14.7948 9.45741 14.7949C9.45732 14.795 9.45723 14.7951 9.45723 14.7951C9.457 14.7953 9.45805 14.7943 9.45931 14.793C9.4607 14.7917 9.46303 14.7895 9.46603 14.7868C9.47204 14.7815 9.48183 14.7735 9.49512 14.7655C9.50883 14.7573 9.52505 14.7499 9.54368 14.7446C9.56223 14.7394 9.58028 14.7373 9.59707 14.7373V15.1373ZM9.68439 15.1183C9.68448 15.1182 9.69208 15.1143 9.70018 15.1092C9.70908 15.1036 9.72345 15.0938 9.73849 15.0787L9.45565 14.7959C9.4688 14.7827 9.48099 14.7745 9.48751 14.7704C9.49324 14.7668 9.49825 14.7642 9.49565 14.7656L9.68439 15.1183ZM9.69553 15.1115C9.69145 15.1142 9.68811 15.1162 9.68617 15.1173C9.68449 15.1182 9.68317 15.1189 9.68432 15.1183L9.49572 14.7656C9.49483 14.7661 9.48471 14.7713 9.47361 14.7787L9.69553 15.1115ZM9.72386 15.0879C9.72303 15.0887 9.7068 15.1056 9.68145 15.1198C9.65184 15.1364 9.61846 15.1451 9.58457 15.1451V14.7451C9.50156 14.7451 9.45194 14.7942 9.4423 14.8038L9.72386 15.0879ZM9.58145 15.1467C9.6217 15.1467 9.65913 15.1347 9.69009 15.115C9.71288 15.1004 9.73093 15.0809 9.72401 15.0877L9.44215 14.8039C9.43481 14.8112 9.45246 14.7921 9.47474 14.7779C9.5052 14.7584 9.54202 14.7467 9.58145 14.7467V15.1467ZM9.66877 15.1277C9.66886 15.1276 9.67645 15.1237 9.68455 15.1186C9.69345 15.113 9.70782 15.1031 9.72287 15.0881L9.44002 14.8053C9.45318 14.7921 9.46537 14.7839 9.47189 14.7798C9.47761 14.7762 9.48263 14.7736 9.48003 14.775L9.66877 15.1277ZM9.67991 15.1209C9.67582 15.1236 9.67248 15.1256 9.67055 15.1267C9.66887 15.1276 9.66755 15.1283 9.6687 15.1277L9.4801 14.775C9.4792 14.7754 9.46908 14.7807 9.45799 14.7881L9.67991 15.1209ZM9.56582 15.1561C9.62674 15.1561 9.66839 15.1287 9.67893 15.1217C9.68746 15.116 9.69417 15.1106 9.69886 15.1066C9.70131 15.1045 9.70348 15.1025 9.70536 15.1007C9.70631 15.0999 9.7072 15.099 9.70803 15.0982C9.70845 15.0978 9.70886 15.0974 9.70925 15.097C9.70944 15.0968 9.70964 15.0966 9.70983 15.0965C9.70992 15.0964 9.71002 15.0963 9.71011 15.0962C9.71016 15.0961 9.7102 15.0961 9.71025 15.096C9.71027 15.096 9.71031 15.096 9.71032 15.096C9.71035 15.0959 9.71039 15.0959 9.56895 14.9545C9.4275 14.8131 9.42754 14.8131 9.42757 14.813C9.42758 14.813 9.42762 14.813 9.42764 14.813C9.42769 14.8129 9.42773 14.8129 9.42778 14.8128C9.42787 14.8127 9.42797 14.8126 9.42806 14.8125C9.42825 14.8123 9.42844 14.8122 9.42863 14.812C9.42902 14.8116 9.42942 14.8112 9.42982 14.8108C9.43063 14.81 9.43149 14.8092 9.43239 14.8084C9.43418 14.8067 9.43622 14.8049 9.4385 14.8029C9.44284 14.7992 9.44907 14.7942 9.45701 14.7889C9.46462 14.7838 9.47669 14.7765 9.49267 14.7701C9.50824 14.7639 9.53361 14.7561 9.56582 14.7561V15.1561ZM9.66242 15.1307C9.66419 15.1296 9.66027 15.1321 9.65534 15.1346C9.64963 15.1376 9.64064 15.1419 9.62905 15.1458L9.50259 14.7663C9.48866 14.771 9.47752 14.7762 9.46976 14.7803C9.46278 14.784 9.4569 14.7875 9.45672 14.7877L9.66242 15.1307ZM9.61655 15.152C9.63048 15.1474 9.64162 15.1421 9.6494 15.1381C9.65639 15.1344 9.66228 15.1308 9.66248 15.1307L9.45666 14.7877C9.45491 14.7887 9.45884 14.7863 9.46378 14.7837C9.46951 14.7807 9.4785 14.7764 9.49009 14.7726L9.61655 15.152ZM9.64046 15.1419C9.64267 15.1408 9.63354 15.1456 9.62232 15.1498C9.61028 15.1543 9.58565 15.1623 9.55332 15.1623V14.7623C9.52021 14.7623 9.4948 14.7705 9.48198 14.7753C9.47516 14.7778 9.46979 14.7802 9.4667 14.7817C9.46508 14.7825 9.46377 14.7831 9.46294 14.7835C9.46218 14.7839 9.46151 14.7842 9.46149 14.7842L9.64046 15.1419ZM9.54863 15.1639C9.58182 15.1639 9.60727 15.1557 9.62008 15.1509C9.62689 15.1483 9.63225 15.1459 9.63532 15.1444C9.63693 15.1437 9.63823 15.1431 9.63905 15.1427C9.6398 15.1423 9.64046 15.142 9.64046 15.1419L9.46149 14.7842C9.4592 14.7854 9.46835 14.7806 9.47953 14.7764C9.49156 14.7719 9.51623 14.7639 9.54863 14.7639V15.1639ZM9.59937 15.1599C9.62308 15.152 9.64211 15.1419 9.65958 15.1303L9.43768 14.7975C9.43956 14.7962 9.44507 14.7926 9.45295 14.7887C9.46129 14.7845 9.46844 14.7819 9.4729 14.7804L9.59937 15.1599ZM9.62328 15.1498C9.62551 15.1486 9.61636 15.1534 9.60515 15.1576C9.5931 15.1622 9.56847 15.1701 9.53613 15.1701V14.7701C9.50301 14.7701 9.4776 14.7783 9.46477 14.7831C9.45795 14.7856 9.45259 14.7881 9.4495 14.7895C9.44788 14.7903 9.44657 14.7909 9.44575 14.7913C9.44498 14.7917 9.44432 14.792 9.4443 14.792L9.62328 15.1498ZM9.53145 15.1717C9.56464 15.1717 9.59009 15.1635 9.60291 15.1587C9.60972 15.1561 9.61508 15.1537 9.61815 15.1522C9.61976 15.1515 9.62106 15.1509 9.62187 15.1505C9.62228 15.1503 9.62263 15.1501 9.62285 15.15C9.62306 15.1499 9.62325 15.1498 9.62328 15.1498L9.4443 14.792C9.44199 14.7932 9.45115 14.7884 9.46233 14.7842C9.47436 14.7797 9.49903 14.7717 9.53145 14.7717V15.1717ZM9.60032 15.1597C9.60093 15.1595 9.60361 15.1584 9.60647 15.1572C9.60929 15.156 9.6146 15.1537 9.62087 15.1506L9.44202 14.7928C9.44673 14.7904 9.45029 14.7889 9.45124 14.7885C9.45225 14.7881 9.45298 14.7878 9.45164 14.7884L9.60032 15.1597ZM9.60993 15.1553C9.60522 15.1576 9.60166 15.1591 9.60069 15.1595C9.59966 15.16 9.59893 15.1602 9.60024 15.1597L9.45171 14.7883C9.45107 14.7886 9.44838 14.7896 9.4455 14.7909C9.44267 14.7921 9.43736 14.7943 9.43109 14.7975L9.60993 15.1553ZM9.51426 15.1795C9.5636 15.1795 9.59959 15.161 9.60685 15.1574C9.62043 15.1506 9.64136 15.1383 9.66191 15.1178L9.37911 14.8349C9.39809 14.8159 9.41668 14.8053 9.42792 14.7996C9.43475 14.7962 9.44385 14.7922 9.45501 14.7886C9.46377 14.7859 9.48548 14.7795 9.51426 14.7795V15.1795ZM9.55894 15.1748C9.56619 15.173 9.58358 15.1684 9.6037 15.1584L9.42482 14.8006C9.44314 14.7914 9.45848 14.7875 9.46358 14.7863L9.55894 15.1748ZM9.59273 15.1615C9.58086 15.1675 9.57066 15.171 9.56405 15.173C9.55743 15.1751 9.55225 15.1763 9.55012 15.1767C9.54848 15.1771 9.5464 15.1775 9.54865 15.177C9.54967 15.1768 9.55386 15.176 9.55888 15.1748L9.46363 14.7863C9.46565 14.7858 9.46725 14.7854 9.46821 14.7852C9.46871 14.7851 9.4691 14.785 9.46935 14.785C9.46959 14.7849 9.46975 14.7849 9.46975 14.7849C9.47061 14.7847 9.46712 14.7854 9.46412 14.7861C9.46062 14.7868 9.45409 14.7884 9.44619 14.7908C9.43831 14.7932 9.42689 14.7972 9.41391 14.8037L9.59273 15.1615ZM9.60097 15.1571C9.60207 15.1565 9.59796 15.1589 9.59276 15.1615L9.41388 14.8037C9.40701 14.8072 9.40145 14.8104 9.4012 14.8106L9.60097 15.1571ZM9.49551 15.1857C9.55691 15.1857 9.60033 15.1575 9.60108 15.1571L9.40109 14.8106C9.39748 14.8127 9.41003 14.805 9.4259 14.7988C9.44625 14.7909 9.46986 14.7857 9.49551 14.7857V15.1857ZM9.53937 15.1813C9.53953 15.1813 9.54134 15.1808 9.54337 15.1803C9.54558 15.1797 9.54889 15.1788 9.55284 15.1776C9.56088 15.175 9.57215 15.171 9.58493 15.1646L9.40609 14.8068C9.41731 14.8012 9.42701 14.7978 9.43349 14.7958C9.43912 14.794 9.44392 14.7929 9.44227 14.7933L9.53937 15.1813ZM9.57555 15.1678C9.56431 15.1734 9.55458 15.1768 9.5481 15.1788C9.54248 15.1806 9.53767 15.1817 9.53937 15.1813L9.44227 14.7933C9.44214 14.7933 9.44033 14.7938 9.43831 14.7943C9.43611 14.7949 9.4328 14.7958 9.42885 14.797C9.42081 14.7995 9.40952 14.8036 9.39671 14.81L9.57555 15.1678ZM9.53982 15.1814C9.54165 15.1808 9.537 15.1822 9.53159 15.1835C9.52842 15.1843 9.52305 15.1855 9.51628 15.1865C9.50973 15.1876 9.49919 15.1889 9.48613 15.1889V14.7889C9.46185 14.7889 9.44311 14.7934 9.43836 14.7945C9.43466 14.7954 9.4317 14.7963 9.43013 14.7967C9.4286 14.7971 9.42724 14.7975 9.42718 14.7975L9.53982 15.1814ZM9.47832 15.1904C9.49812 15.1904 9.51401 15.1876 9.52332 15.1856C9.52822 15.1845 9.53224 15.1835 9.53491 15.1827C9.53742 15.1821 9.53958 15.1814 9.53973 15.1814L9.42726 14.7975C9.42568 14.798 9.43152 14.7962 9.43873 14.7946C9.4463 14.793 9.46035 14.7904 9.47832 14.7904V15.1904ZM9.46895 15.192C9.48606 15.192 9.49986 15.1899 9.50814 15.1883C9.51239 15.1875 9.51587 15.1867 9.51809 15.1862C9.52016 15.1857 9.52199 15.1853 9.52213 15.1852C9.52277 15.1851 9.52172 15.1853 9.52044 15.1856C9.519 15.186 9.5163 15.1866 9.51283 15.1873C9.50611 15.1885 9.49388 15.1904 9.47832 15.1904V14.7904C9.4612 14.7904 9.4474 14.7925 9.43913 14.7941C9.43487 14.7949 9.43139 14.7957 9.42917 14.7962C9.4271 14.7967 9.42528 14.7971 9.42513 14.7972C9.4245 14.7973 9.42554 14.7971 9.42683 14.7968C9.42827 14.7964 9.43097 14.7958 9.43444 14.7952C9.44115 14.7939 9.45339 14.792 9.46895 14.792V15.192ZM9.51282 15.1868C9.51457 15.1863 9.50954 15.1877 9.50344 15.1888C9.49671 15.1901 9.48448 15.192 9.46895 15.192V14.792C9.45185 14.792 9.43806 14.7941 9.42977 14.7957C9.42551 14.7965 9.42202 14.7972 9.41979 14.7978C9.4177 14.7983 9.41587 14.7987 9.4157 14.7988L9.51282 15.1868ZM9.45957 15.1936C9.47667 15.1936 9.49046 15.1914 9.49875 15.1899C9.50301 15.1891 9.5065 15.1883 9.50873 15.1878C9.51082 15.1873 9.51265 15.1868 9.51282 15.1868L9.4157 14.7988C9.41395 14.7992 9.41898 14.7979 9.42508 14.7967C9.43181 14.7955 9.44403 14.7936 9.45957 14.7936V15.1936ZM9.49681 15.1896C9.49897 15.1891 9.48156 15.1936 9.45957 15.1936V14.7936C9.43242 14.7936 9.4108 14.7989 9.40917 14.7993L9.49681 15.1896ZM9.44863 15.1951C9.46414 15.1951 9.47667 15.1934 9.48428 15.1921C9.48813 15.1914 9.49129 15.1908 9.49326 15.1904C9.4951 15.19 9.49673 15.1896 9.4969 15.1896L9.40908 14.7993C9.40728 14.7997 9.41181 14.7987 9.41724 14.7977C9.4234 14.7967 9.43453 14.7951 9.44863 14.7951V15.1951ZM9.50216 15.1877C9.50405 15.1871 9.4994 15.1885 9.49404 15.1898C9.49088 15.1905 9.48553 15.1917 9.47876 15.1928C9.47222 15.1938 9.46169 15.1951 9.44863 15.1951V14.7951C9.42436 14.7951 9.40563 14.7997 9.40091 14.8008C9.39723 14.8017 9.39428 14.8025 9.39272 14.8029C9.39122 14.8033 9.38987 14.8037 9.38984 14.8037L9.50216 15.1877ZM9.44082 15.1967C9.46062 15.1967 9.47651 15.1938 9.48582 15.1918C9.49072 15.1908 9.49474 15.1897 9.49741 15.189C9.49992 15.1883 9.50208 15.1877 9.50223 15.1876L9.38976 14.8038C9.38818 14.8042 9.39402 14.8024 9.40123 14.8009C9.4088 14.7992 9.42285 14.7967 9.44082 14.7967V15.1967ZM9.47383 15.1936C9.4767 15.193 9.46072 15.1967 9.44082 15.1967V14.7967C9.41624 14.7967 9.39635 14.8011 9.39531 14.8014L9.47383 15.1936ZM9.42832 15.1982C9.45287 15.1982 9.4727 15.1938 9.47383 15.1936L9.39531 14.8014C9.39253 14.8019 9.40846 14.7982 9.42832 14.7982V15.1982ZM9.42207 15.1982H9.42832V14.7982H9.42207V15.1982ZM9.43753 15.1975C9.43958 15.1972 9.43808 15.1974 9.43604 15.1976C9.43366 15.1978 9.42866 15.1982 9.42207 15.1982V14.7982C9.4044 14.7982 9.3889 14.8004 9.38786 14.8006L9.43753 15.1975ZM9.40332 15.1998C9.42099 15.1998 9.4365 15.1976 9.43753 15.1975L9.38786 14.8006C9.38581 14.8008 9.38731 14.8006 9.38935 14.8004C9.39173 14.8002 9.39673 14.7998 9.40332 14.7998V15.1998ZM3.98926 15.1998H9.40332V14.7998H3.98926V15.1998ZM1.85957 13.0701C1.85957 14.2446 2.81474 15.1998 3.98926 15.1998V14.7998C3.03565 14.7998 2.25957 14.0237 2.25957 13.0701H1.85957ZM1.85957 2.94043V13.0701H2.25957V2.94043H1.85957ZM3.98926 0.810742C2.81474 0.810742 1.85957 1.76591 1.85957 2.94043H2.25957C2.25957 1.98682 3.03565 1.21074 3.98926 1.21074V0.810742ZM12.0439 0.810742H3.98926V1.21074H12.0439V0.810742ZM14.1736 2.94043C14.1736 1.76591 13.2185 0.810742 12.0439 0.810742V1.21074C12.9976 1.21074 13.7736 1.98682 13.7736 2.94043H14.1736ZM14.1736 10.3623V2.94043H13.7736V10.3623H14.1736ZM14.1736 10.3654V10.3623H13.7736V10.3654H14.1736ZM14.1682 10.4296C14.1743 10.399 14.1736 10.3708 14.1736 10.3654H13.7736C13.7736 10.368 13.7736 10.3691 13.7736 10.3699C13.7736 10.3707 13.7736 10.3702 13.7737 10.369C13.7738 10.3665 13.7742 10.36 13.776 10.3512L14.1682 10.4296ZM14.1721 10.3967V10.3904H13.7721V10.3967H14.1721ZM14.1655 10.4556C14.1665 10.4508 14.1721 10.4265 14.1721 10.3967H13.7721C13.7721 10.3802 13.7754 10.3669 13.7737 10.3749L14.1655 10.4556ZM14.165 10.4578C14.1652 10.4573 14.1653 10.4568 14.1655 10.4555L13.7737 10.3749C13.7735 10.3758 13.7732 10.3775 13.7728 10.3793L14.165 10.4578ZM14.1689 10.4217V10.4186H13.7689V10.4217H14.1689ZM14.1574 10.4909C14.1581 10.4886 14.1621 10.4756 14.1651 10.4609L13.7728 10.3825C13.7737 10.3783 13.7744 10.3754 13.7747 10.3745C13.7749 10.3739 13.775 10.3736 13.7743 10.3759L14.1574 10.4909ZM14.1588 10.4843C14.158 10.4885 14.1572 10.4914 14.157 10.4923C14.1568 10.4929 14.1567 10.4932 14.1574 10.4909L13.7743 10.3759C13.7736 10.3782 13.7695 10.3912 13.7666 10.4059L14.1588 10.4843ZM14.1516 10.5115C14.1517 10.5114 14.1522 10.5099 14.1527 10.5082C14.1533 10.5064 14.1543 10.5031 14.1554 10.4991C14.1566 10.4949 14.1627 10.4732 14.1627 10.4451H13.7627C13.7627 10.4296 13.7645 10.4174 13.7658 10.4105C13.7671 10.4031 13.7686 10.3973 13.7695 10.3939C13.7711 10.3881 13.7728 10.3831 13.7722 10.385L14.1516 10.5115ZM14.1611 10.4514C14.1611 10.4668 14.1593 10.4791 14.1581 10.486C14.1567 10.4934 14.1553 10.4992 14.1543 10.5025C14.1527 10.5084 14.151 10.5133 14.1516 10.5115L13.7722 10.385C13.7722 10.385 13.7716 10.3866 13.7711 10.3883C13.7705 10.3901 13.7695 10.3933 13.7684 10.3974C13.7673 10.4016 13.7611 10.4233 13.7611 10.4514H14.1611ZM14.1477 10.5248C14.1483 10.5232 14.1521 10.5119 14.1552 10.4999L13.7671 10.4029C13.768 10.3991 13.7688 10.3966 13.7689 10.3963C13.769 10.3961 13.769 10.3962 13.7683 10.3983L14.1477 10.5248ZM14.1489 10.5202C14.148 10.524 14.1472 10.5265 14.1471 10.5267C14.147 10.5269 14.1471 10.5268 14.1477 10.5248L13.7683 10.3983C13.7678 10.3998 13.7639 10.4111 13.7609 10.4232L14.1489 10.5202ZM14.1533 10.4748C14.1533 10.507 14.1455 10.5324 14.1393 10.5479C14.1329 10.5639 14.1256 10.576 14.1205 10.5836C14.1152 10.5915 14.1102 10.5977 14.1065 10.6021C14.1046 10.6043 14.1027 10.6064 14.1011 10.6082C14.1002 10.6091 14.0994 10.6099 14.0986 10.6107C14.0982 10.6111 14.0978 10.6115 14.0975 10.6119C14.0973 10.6121 14.0971 10.6123 14.0969 10.6125C14.0968 10.6126 14.0967 10.6127 14.0966 10.6128C14.0966 10.6128 14.0965 10.6129 14.0965 10.6129C14.0965 10.6129 14.0964 10.613 14.0964 10.613C14.0964 10.613 14.0963 10.6131 13.9549 10.4717C13.8134 10.3303 13.8134 10.3303 13.8133 10.3304C13.8133 10.3304 13.8133 10.3304 13.8133 10.3304C13.8132 10.3305 13.8132 10.3305 13.8131 10.3306C13.813 10.3307 13.813 10.3308 13.8129 10.3309C13.8127 10.3311 13.8125 10.3312 13.8123 10.3314C13.8119 10.3318 13.8115 10.3322 13.8111 10.3327C13.8103 10.3335 13.8094 10.3344 13.8086 10.3353C13.8068 10.3372 13.8049 10.3394 13.8028 10.3418C13.7987 10.3465 13.7934 10.3532 13.7877 10.3617C13.7807 10.3723 13.7533 10.4139 13.7533 10.4748H14.1533ZM14.1296 10.571C14.1313 10.5667 14.1322 10.5645 14.133 10.5628C14.1337 10.561 14.1334 10.5619 14.1322 10.5642L13.7744 10.3854C13.7668 10.4006 13.7604 10.4169 13.7583 10.4224L14.1296 10.571ZM14.1321 10.5631C14.133 10.5605 14.1299 10.5702 14.1251 10.5809C14.1198 10.5924 14.1081 10.6153 14.0854 10.6381L13.8025 10.3553C13.779 10.3788 13.7667 10.4027 13.761 10.4153C13.7579 10.422 13.7558 10.4276 13.7546 10.4309C13.754 10.4326 13.7535 10.434 13.7532 10.4349C13.7529 10.4357 13.7527 10.4365 13.7527 10.4365L14.1321 10.5631ZM14.0822 10.6444C14.1058 10.6208 14.1181 10.5968 14.1238 10.5842C14.1269 10.5775 14.129 10.572 14.1302 10.5687C14.1308 10.567 14.1313 10.5656 14.1316 10.5647C14.1318 10.5639 14.1321 10.5631 14.1321 10.5631L13.7527 10.4365C13.7518 10.4392 13.7548 10.4295 13.7597 10.4188C13.7649 10.4073 13.7766 10.3843 13.7994 10.3615L14.0822 10.6444ZM14.1103 10.6111L14.1197 10.5924L13.7619 10.4135L13.7526 10.4322L14.1103 10.6111ZM14.1299 10.5264C14.1299 10.5429 14.1278 10.5571 14.1253 10.5685C14.1229 10.5798 14.1198 10.589 14.1174 10.5954C14.115 10.6018 14.1127 10.6068 14.1115 10.6095C14.1103 10.612 14.1093 10.614 14.1096 10.6134C14.1096 10.6134 14.1099 10.6128 14.1103 10.612C14.1107 10.6112 14.1113 10.6099 14.1121 10.6083C14.1135 10.6052 14.1159 10.5999 14.1185 10.5931C14.121 10.5862 14.1242 10.5767 14.1268 10.565C14.1293 10.5532 14.1314 10.5386 14.1314 10.5217H13.7314C13.7314 10.5052 13.7335 10.4909 13.736 10.4795C13.7385 10.4683 13.7415 10.4591 13.7439 10.4526C13.7463 10.4462 13.7486 10.4413 13.7498 10.4386C13.751 10.4361 13.7521 10.434 13.7518 10.4346C13.7518 10.4346 13.7514 10.4353 13.7511 10.436C13.7507 10.4368 13.75 10.4381 13.7493 10.4397C13.7478 10.4428 13.7454 10.4482 13.7429 10.455C13.7403 10.4618 13.7371 10.4714 13.7346 10.483C13.732 10.4948 13.7299 10.5095 13.7299 10.5264H14.1299ZM14.0985 10.6337C14.0997 10.6314 14.0991 10.6326 14.0981 10.6342C14.097 10.6361 14.0942 10.6406 14.0899 10.6463L13.7699 10.4064C13.7579 10.4223 13.7495 10.4382 13.7488 10.4394L14.0985 10.6337ZM14.0774 10.6667C14.0893 10.6507 14.0978 10.6349 14.0985 10.6337L13.7488 10.4394C13.7475 10.4417 13.7482 10.4405 13.7492 10.4388C13.7503 10.4369 13.7531 10.4324 13.7574 10.4267L14.0774 10.6667ZM14.0557 10.6944C14.0763 10.6738 14.0885 10.6528 14.0953 10.6392C14.0989 10.632 14.1174 10.596 14.1174 10.5467H13.7174C13.7174 10.5179 13.7237 10.4962 13.7265 10.4874C13.7301 10.4763 13.7341 10.4672 13.7375 10.4604C13.7431 10.4491 13.7538 10.4305 13.7728 10.4115L14.0557 10.6944ZM14.0776 10.6683C14.0788 10.6665 14.0786 10.6668 14.0782 10.6673C14.0776 10.6682 14.0763 10.6702 14.0743 10.6729L13.7542 10.433C13.746 10.4439 13.7398 10.4541 13.7384 10.4563L14.0776 10.6683ZM14.0618 10.6917C14.07 10.6807 14.0762 10.6706 14.0776 10.6683L13.7384 10.4563C13.7373 10.4582 13.7374 10.4578 13.7378 10.4572C13.7384 10.4564 13.7398 10.4544 13.7418 10.4517L14.0618 10.6917ZM14.0424 10.7147C14.0448 10.7122 14.1018 10.6604 14.1018 10.5717H13.7018C13.7018 10.535 13.7119 10.4998 13.73 10.4697C13.7446 10.4455 13.7624 10.429 13.7596 10.4318L14.0424 10.7147ZM3.03145 13.0701V2.94043H2.63145V13.0701H3.03145ZM3.98926 14.0279C3.46065 14.0279 3.03145 13.5987 3.03145 13.0701H2.63145C2.63145 13.8196 3.23974 14.4279 3.98926 14.4279V14.0279ZM9.0002 14.0279H3.98926V14.4279H9.0002V14.0279ZM8.8002 11.8904V14.2279H9.2002V11.8904H8.8002ZM10.9299 9.76074C9.75536 9.76074 8.8002 10.7159 8.8002 11.8904H9.2002C9.2002 10.9368 9.97628 10.1607 10.9299 10.1607V9.76074ZM13.2018 9.76074H10.9299V10.1607H13.2018V9.76074ZM13.0018 2.94043V9.96074H13.4018V2.94043H13.0018ZM12.0439 1.98262C12.5726 1.98262 13.0018 2.41182 13.0018 2.94043H13.4018C13.4018 2.19091 12.7935 1.58262 12.0439 1.58262V1.98262ZM3.98926 1.98262H12.0439V1.58262H3.98926V1.98262ZM3.03145 2.94043C3.03145 2.41182 3.46065 1.98262 3.98926 1.98262V1.58262C3.23974 1.58262 2.63145 2.19091 2.63145 2.94043H3.03145ZM9.97207 13.6717V11.8904H9.57207V13.6717H9.97207ZM12.5233 10.5923L9.62956 13.5314L9.91459 13.812L12.8083 10.8729L12.5233 10.5923ZM10.9299 10.9326H12.6658V10.5326H10.9299V10.9326ZM9.97207 11.8904C9.97207 11.3618 10.4013 10.9326 10.9299 10.9326V10.5326C10.1804 10.5326 9.57207 11.1409 9.57207 11.8904H9.97207ZM4.77524 4.79036H11.3096V4.39036H4.77524V4.79036ZM4.18931 4.20442C4.18931 4.52947 4.45282 4.79036 4.77524 4.79036V4.39036C4.67267 4.39036 4.58931 4.3075 4.58931 4.20442H4.18931ZM4.77524 3.61848C4.45229 3.61848 4.18931 3.88146 4.18931 4.20442H4.58931C4.58931 4.10238 4.6732 4.01848 4.77524 4.01848V3.61848ZM11.3096 3.61848H4.77524V4.01848H11.3096V3.61848ZM11.8956 4.20442C11.8956 3.88146 11.6326 3.61848 11.3096 3.61848V4.01848C11.4117 4.01848 11.4956 4.10238 11.4956 4.20442H11.8956ZM11.3096 4.79036C11.6326 4.79036 11.8956 4.52738 11.8956 4.20442H11.4956C11.4956 4.30646 11.4117 4.39036 11.3096 4.39036V4.79036ZM4.73774 7.49661H11.2721V7.09661H4.73774V7.49661ZM4.15181 6.91067C4.15181 7.23571 4.41531 7.49661 4.73774 7.49661V7.09661C4.63517 7.09661 4.55181 7.01375 4.55181 6.91067H4.15181ZM4.73774 6.32473C4.41479 6.32473 4.15181 6.58771 4.15181 6.91067H4.55181C4.55181 6.80863 4.6357 6.72473 4.73774 6.72473V6.32473ZM11.2721 6.32473H4.73774V6.72473H11.2721V6.32473ZM11.8581 6.91067C11.8581 6.58771 11.5951 6.32473 11.2721 6.32473V6.72473C11.3742 6.72473 11.4581 6.80863 11.4581 6.91067H11.8581ZM11.2721 7.49661C11.5951 7.49661 11.8581 7.23362 11.8581 6.91067H11.4581C11.4581 7.01271 11.3742 7.09661 11.2721 7.09661V7.49661ZM9.25337 9.61692C9.25337 9.29396 8.99039 9.03098 8.66743 9.03098V9.43098C8.76947 9.43098 8.85337 9.51488 8.85337 9.61692H9.25337ZM8.66743 10.2029C8.99039 10.2029 9.25337 9.93988 9.25337 9.61692H8.85337C8.85337 9.71896 8.76947 9.80286 8.66743 9.80286V10.2029ZM4.78618 10.2029H8.66743V9.80286H4.78618V10.2029ZM4.20024 9.61692C4.20024 9.93988 4.46322 10.2029 4.78618 10.2029V9.80286C4.68414 9.80286 4.60024 9.71896 4.60024 9.61692H4.20024ZM4.78618 9.03098C4.46322 9.03098 4.20024 9.29396 4.20024 9.61692H4.60024C4.60024 9.51488 4.68414 9.43098 4.78618 9.43098V9.03098ZM8.66743 9.03098H4.78618V9.43098H8.66743V9.03098Z" fill="#333A3B"/>
</g>
</g>
</svg>
