<svg width="28" height="28" viewBox="0 0 28 28" fill="none" xmlns="http://www.w3.org/2000/svg">
<g id="&#229;&#175;&#188;&#232;&#136;&#170;&#230;&#157;&#161;-&#231;&#188;&#150;&#229;&#136;&#182;&#229;&#141;&#149;&#228;&#189;&#141;&#231;&#174;&#161;&#231;&#144;&#134;">
<path id="Vector" d="M23.9874 14.1805L19.7107 12.5076C18.6613 12.0979 17.5282 12.8682 17.5282 13.9916V22.4055C17.5282 23.2862 18.2434 24 19.1258 24H23.4024C24.2848 24 25 23.2862 25 22.4055V15.6646C25.0024 15.0097 24.5994 14.4185 23.9874 14.1805ZM13.3991 4.09613L4.05441 7.46414C3.42029 7.69227 3 8.29326 3 8.96539V22.4055C3 23.2862 3.71523 24 4.59759 24H13.9422C14.8246 24 15.5398 23.2862 15.5398 22.4055V5.59738C15.5398 4.49107 14.4412 3.72082 13.3991 4.09613ZM12.0743 18.1569H6.24187C5.65445 18.1569 5.17517 17.681 5.17517 17.0923C5.17517 16.506 5.65199 16.0277 6.24187 16.0277H12.0743C12.6617 16.0277 13.141 16.5035 13.141 17.0923C13.141 17.681 12.6642 18.1569 12.0743 18.1569ZM12.0743 13.8126H6.24187C5.65445 13.8126 5.17517 13.3367 5.17517 12.748C5.17517 12.1617 5.65199 11.6833 6.24187 11.6833H12.0743C12.6617 11.6833 13.141 12.1592 13.141 12.748C13.141 13.3367 12.6642 13.8126 12.0743 13.8126Z" fill="currentColor"/>
</g>
</svg>
