<svg width="28" height="28" viewBox="0 0 28 28" fill="none" xmlns="http://www.w3.org/2000/svg">
<g id="&#229;&#175;&#188;&#232;&#136;&#170;&#230;&#157;&#161;-&#232;&#175;&#132;&#228;&#188;&#152;&#233;&#161;&#185;&#231;&#155;&#174;">
<path id="Vector" d="M21.1 9.47881H18.6668C17.9333 9.479 17.2244 9.2143 16.6706 8.73344L14.3835 6.74656C13.8299 6.26527 13.121 6.00014 12.3873 6H5.9C5.65049 6 5.40342 6.04912 5.1729 6.14456C4.94238 6.23999 4.73293 6.37987 4.5565 6.55622C4.38007 6.73256 4.24011 6.94191 4.14463 7.17231C4.04914 7.40271 4 7.64966 4 7.89904V21.101C4 21.3503 4.04914 21.5973 4.14463 21.8277C4.24011 22.0581 4.38007 22.2674 4.5565 22.4438C4.73293 22.6201 4.94238 22.76 5.1729 22.8554C5.40342 22.9509 5.65049 23 5.9 23H21.1C21.3495 23 21.5966 22.9509 21.8271 22.8554C22.0576 22.76 22.2671 22.6201 22.4435 22.4438C22.6199 22.2674 22.7599 22.0581 22.8554 21.8277C22.9508 21.5973 23 21.3503 23 21.101V11.3826C23.0006 11.1328 22.9519 10.8854 22.8567 10.6544C22.7615 10.4235 22.6217 10.2136 22.4452 10.0367C22.2687 9.85986 22.059 9.71955 21.8282 9.62382C21.5974 9.52809 21.3499 9.47881 21.1 9.47881ZM13.6294 19.6434H7.91875C7.66682 19.6434 7.42523 19.5433 7.2471 19.3653C7.06898 19.1872 6.96891 18.9457 6.96891 18.6939C6.96891 18.4421 7.06898 18.2006 7.2471 18.0226C7.42523 17.8445 7.66682 17.7444 7.91875 17.7444H13.6318C13.7566 17.7444 13.8801 17.7689 13.9954 17.8166C14.1107 17.8643 14.2154 17.9343 14.3037 18.0224C14.3919 18.1106 14.4619 18.2153 14.5096 18.3305C14.5574 18.4457 14.582 18.5692 14.582 18.6939C14.582 18.8186 14.5574 18.9421 14.5096 19.0573C14.4619 19.1725 14.3919 19.2772 14.3037 19.3654C14.2154 19.4536 14.1107 19.5235 13.9954 19.5712C13.8801 19.6189 13.7566 19.6435 13.6318 19.6434H13.6294Z" fill="currentColor"/>
</g>
</svg>
