<svg width="28" height="28" viewBox="0 0 28 28" fill="none" xmlns="http://www.w3.org/2000/svg">
<g id="&#229;&#164;&#180;&#233;&#131;&#168;&#230;&#160;&#135;&#233;&#162;&#152;&#229;&#155;&#190;&#230;&#160;&#135;-&#233;&#128;&#128;&#229;&#135;&#186;&#231;&#153;&#187;&#229;&#189;&#149;">
<path id="Vector" d="M15.3927 17.2341H9.48852C9.20608 17.2341 9.02228 17.1041 8.97521 16.8732C8.96624 16.8262 8.96624 16.7791 8.96624 16.7298V11.646C8.96624 11.3254 9.14108 11.1528 9.4661 11.1528H15.3905V10.9981V6.47471C15.3905 6.26625 15.4891 6.10262 15.6572 6.03761C15.85 5.96364 16.0204 5.99726 16.1661 6.15193C16.249 6.23935 16.3409 6.32005 16.4261 6.40747C17.5065 7.48565 18.5847 8.56383 19.6651 9.63977C21.0526 11.0228 22.4379 12.4058 23.8254 13.7911C24.0563 14.022 24.0586 14.2641 23.8299 14.4905C21.8461 16.472 19.8624 18.4535 17.8764 20.4328C17.3115 20.9954 16.7444 21.5558 16.1795 22.1184C16.0338 22.2641 15.8724 22.3269 15.6752 22.2529C15.4824 22.179 15.3927 22.0288 15.3927 21.7889V17.2341ZM11.8287 6.08693V7.79947H7.31646C6.39743 7.79947 5.71824 8.47865 5.71824 9.39993C5.71824 12.5896 5.72497 15.7794 5.71376 18.9691C5.71152 19.8141 6.3526 20.4216 6.94661 20.5314C7.07886 20.5561 7.21335 20.5673 7.34785 20.5673C8.78692 20.5695 10.226 20.5695 11.6651 20.5695H11.8264V22.2731C11.8063 22.2776 11.7816 22.2866 11.7592 22.2866C10.2305 22.2866 8.6995 22.3023 7.17076 22.2798C5.67565 22.2574 4.35314 21.1232 4.06623 19.655C4.02588 19.4488 4.0057 19.2336 4.0057 19.0229C4.00122 15.7995 3.9945 12.574 4.00795 9.35061C4.01467 8.00345 4.68265 7.03734 5.85049 6.40971C6.26294 6.1878 6.71797 6.08693 7.18645 6.08693C8.70398 6.08244 10.2193 6.08468 11.7368 6.08468C11.7614 6.08468 11.7883 6.08693 11.8287 6.08693Z" fill="#333A3B"/>
</g>
</svg>
