<svg width="16" height="16" viewBox="0 0 16 16" fill="none" xmlns="http://www.w3.org/2000/svg">
<g id="&#229;&#177;&#149;&#229;&#188;&#128;">
<rect id="&#231;&#159;&#169;&#229;&#189;&#162;" opacity="0.01" width="16" height="16" fill="#262626"/>
<path id="&#229;&#189;&#162;&#231;&#138;&#182;" fill-rule="evenodd" clip-rule="evenodd" d="M1.875 2.5H14.125C14.1938 2.5 14.25 2.55625 14.25 2.625V3.5C14.25 3.56875 14.1938 3.625 14.125 3.625H1.875C1.80625 3.625 1.75 3.56875 1.75 3.5V2.625C1.75 2.55625 1.80625 2.5 1.875 2.5ZM6.375 6.90625H13.875C13.9438 6.90625 14 6.85 14 6.78125V5.90625C14 5.8375 13.9438 5.78125 13.875 5.78125H6.375C6.30625 5.78125 6.25 5.8375 6.25 5.90625V6.78125C6.25 6.85 6.30625 6.90625 6.375 6.90625ZM6.25 10.0938C6.25 10.1625 6.30625 10.2188 6.375 10.2188H13.875C13.9438 10.2188 14 10.1625 14 10.0938V9.21875C14 9.15 13.9438 9.09375 13.875 9.09375H6.375C6.30625 9.09375 6.25 9.15 6.25 9.21875V10.0938ZM14.125 12.375H1.875C1.80625 12.375 1.75 12.4312 1.75 12.5V13.375C1.75 13.4438 1.80625 13.5 1.875 13.5H14.125C14.1938 13.5 14.25 13.4438 14.25 13.375V12.5C14.25 12.4312 14.1938 12.375 14.125 12.375ZM4.24492 10.0313L1.80273 8.10783C1.73242 8.05314 1.73242 7.94689 1.80273 7.89221L4.24492 5.96877C4.33711 5.89689 4.46992 5.96096 4.46992 6.07658V9.92346C4.46992 10.0391 4.33555 10.1031 4.24492 10.0313Z" fill="#262626"/>
</g>
</svg>
