<svg width="16" height="16" viewBox="0 0 16 16" fill="none" xmlns="http://www.w3.org/2000/svg">
<g id="Property 1=Variant2">
<rect id="&#231;&#159;&#169;&#229;&#189;&#162;" opacity="0.01" width="16" height="16" fill="#262626"/>
<path id="&#229;&#189;&#162;&#231;&#138;&#182;" fill-rule="evenodd" clip-rule="evenodd" d="M14.125 2.5H1.875C1.80625 2.5 1.75 2.55625 1.75 2.625V3.5C1.75 3.56875 1.80625 3.625 1.875 3.625H14.125C14.1937 3.625 14.25 3.56875 14.25 3.5V2.625C14.25 2.55625 14.1937 2.5 14.125 2.5ZM9.625 6.90625H2.125C2.05625 6.90625 2 6.85 2 6.78125V5.90625C2 5.8375 2.05625 5.78125 2.125 5.78125H9.625C9.69375 5.78125 9.75 5.8375 9.75 5.90625V6.78125C9.75 6.85 9.69375 6.90625 9.625 6.90625ZM9.75 10.0938C9.75 10.1625 9.69375 10.2188 9.625 10.2188H2.125C2.05625 10.2188 2 10.1625 2 10.0938V9.21875C2 9.15 2.05625 9.09375 2.125 9.09375H9.625C9.69375 9.09375 9.75 9.15 9.75 9.21875V10.0938ZM1.875 12.375H14.125C14.1937 12.375 14.25 12.4312 14.25 12.5V13.375C14.25 13.4438 14.1937 13.5 14.125 13.5H1.875C1.80625 13.5 1.75 13.4438 1.75 13.375V12.5C1.75 12.4312 1.80625 12.375 1.875 12.375ZM11.7551 10.0313L14.1973 8.10783C14.2676 8.05314 14.2676 7.94689 14.1973 7.89221L11.7551 5.96877C11.6629 5.89689 11.5301 5.96096 11.5301 6.07658V9.92346C11.5301 10.0391 11.6645 10.1031 11.7551 10.0313Z" fill="#262626"/>
</g>
</svg>
