<svg width="18" height="18" viewBox="0 0 18 18" fill="none" xmlns="http://www.w3.org/2000/svg">
<g id="&#229;&#155;&#190;&#230;&#160;&#135;-&#229;&#174;&#161;&#230;&#159;&#165;">
<path id="Vector" d="M15.6094 15.4688H2.39062C2.00231 15.4688 1.6875 15.7835 1.6875 16.1719C1.6875 16.5602 2.00231 16.875 2.39062 16.875H15.6094C15.9977 16.875 16.3125 16.5602 16.3125 16.1719C16.3125 15.7835 15.9977 15.4688 15.6094 15.4688ZM14.625 9.84375H11.9066C11.5574 9.84375 11.2925 9.52891 11.3524 9.18487L11.3854 8.9952C11.4669 8.52644 11.6586 8.08054 11.9618 7.71388C12.2298 7.38977 12.5578 6.89089 12.7571 6.24264C12.7615 6.22877 12.7647 6.21448 12.7689 6.20054C12.799 6.09885 12.8269 5.9953 12.8497 5.88633C12.8623 5.82732 12.8704 5.76686 12.8803 5.70691C12.8918 5.63567 12.9052 5.56615 12.9131 5.49209C12.9284 5.35089 12.9375 5.2078 12.9375 5.0625C12.9375 2.88789 11.1746 1.125 9 1.125C6.82538 1.125 5.0625 2.88789 5.0625 5.0625C5.0625 5.2078 5.07162 5.35089 5.08695 5.49209C5.09483 5.56615 5.10817 5.63567 5.11973 5.70691C5.12963 5.76686 5.13772 5.82732 5.15029 5.88633C5.17308 5.9953 5.20098 6.09885 5.23107 6.20054C5.23528 6.21448 5.23856 6.22876 5.2429 6.24264C5.44215 6.89062 5.76993 7.38942 6.03791 7.71353C6.34233 8.08172 6.53632 8.52864 6.62154 8.99872L6.65592 9.18826C6.71857 9.53385 6.45272 9.85171 6.10151 9.85113L3.37783 9.84658C2.44475 9.84502 1.6875 10.601 1.6875 11.5341V13.2188C1.6875 13.8401 2.19117 14.3438 2.8125 14.3438H15.1875C15.8088 14.3438 16.3125 13.8401 16.3125 13.2188V11.5312C16.3125 10.5993 15.557 9.84375 14.625 9.84375ZM14.9062 12.6562C14.9062 12.8116 14.7803 12.9375 14.625 12.9375H3.375C3.21966 12.9375 3.09375 12.8116 3.09375 12.6562V11.8158C3.09375 11.5048 3.34615 11.2528 3.6572 11.2533L6.77398 11.2585C7.65202 11.26 8.31669 10.4653 8.16001 9.60137L8.0052 8.74767C7.8743 8.02566 7.56881 7.35824 7.12174 6.81754C6.9566 6.61783 6.73209 6.28875 6.5913 5.84295C6.58757 5.8291 6.58364 5.81531 6.57953 5.80157C6.55559 5.72059 6.53882 5.65604 6.52616 5.59561C6.52268 5.57779 6.5202 5.55973 6.51739 5.54168L6.50779 5.48146L6.49733 5.41883C6.49313 5.39401 6.48809 5.36936 6.48497 5.34027C6.47406 5.23972 6.46875 5.14888 6.46875 5.0625C6.46875 3.66676 7.60426 2.53125 9 2.53125C10.3957 2.53125 11.5312 3.66676 11.5312 5.0625C11.5312 5.14888 11.5259 5.23972 11.5147 5.3434C11.5119 5.36936 11.5069 5.39401 11.5027 5.41883L11.4928 5.47778L11.4826 5.54168C11.4798 5.55973 11.4773 5.5778 11.4732 5.59844C11.4612 5.65604 11.4444 5.72059 11.4227 5.79417C11.4179 5.81017 11.4133 5.82623 11.4086 5.84341C11.27 6.28581 11.044 6.61713 10.8781 6.81776C10.4296 7.36001 10.1259 8.02965 9.99988 8.75428L9.85229 9.60282C9.70274 10.4629 10.3648 11.25 11.2377 11.25H14.3438C14.6544 11.25 14.9062 11.5018 14.9062 11.8125V12.6562Z" fill="currentColor"/>
</g>
</svg>
