<svg width="28" height="28" viewBox="0 0 28 28" fill="none" xmlns="http://www.w3.org/2000/svg">
<g id="&#229;&#175;&#188;&#232;&#136;&#170;&#230;&#157;&#161;-&#230;&#179;&#168;&#229;&#134;&#140;&#232;&#167;&#132;&#229;&#136;&#146;">
<g id="Vector">
<path d="M20.4751 9.40173L17.5983 6.52492C17.2244 6.15099 16.6181 6.15099 16.2442 6.52492L4.845 17.9241C4.7033 18.0658 4.60963 18.2484 4.57719 18.4462L4.01263 21.8875C3.99579 21.9902 3.99579 22.0949 4.01263 22.1975C4.09824 22.7194 4.59067 23.073 5.11251 22.9874L8.55384 22.4229C8.7516 22.3904 8.93418 22.2967 9.07588 22.155L20.4751 10.7558C20.849 10.3819 20.849 9.77564 20.4751 9.40173Z" fill="#333A3B"/>
<path d="M22.7196 7.15724L19.8428 4.28043C19.4689 3.90652 18.8626 3.90652 18.4887 4.28043L18.0884 4.6807C17.7145 5.05463 17.7145 5.66087 18.0884 6.0348L20.9652 8.9116C21.3391 9.28551 21.9454 9.28551 22.3193 8.9116L22.7196 8.51134C23.0935 8.1374 23.0935 7.53117 22.7196 7.15724Z" fill="#333A3B"/>
<path d="M8.64199 12.538L11.5188 9.66122C11.8927 9.28731 11.8927 8.68105 11.5188 8.30714L8.64199 5.43034C8.26808 5.0564 7.66182 5.0564 7.28791 5.43034L4.41111 8.30714C4.03717 8.68105 4.03717 9.28731 4.41111 9.66122L7.28791 12.538C7.66182 12.9119 8.26808 12.9119 8.64199 12.538Z" fill="#333A3B"/>
<path d="M18.6575 22.5535L21.5343 19.6767C21.9082 19.3028 21.9082 18.6966 21.5343 18.3227L18.6575 15.4459C18.2836 15.0719 17.6773 15.0719 17.3034 15.4459L14.4266 18.3227C14.0527 18.6966 14.0527 19.3028 14.4266 19.6767L17.3034 22.5535C17.6773 22.9275 18.2836 22.9275 18.6575 22.5535Z" fill="#333A3B"/>
</g>
</g>
</svg>
